<svg xmlns="http://www.w3.org/2000/svg" version="1.1" xmlns:xlink="http://www.w3.org/1999/xlink" width="960" height="960"><svg xmlns="http://www.w3.org/2000/svg" version="1.1" xmlns:xlink="http://www.w3.org/1999/xlink" width="960" height="960"><svg xmlns="http://www.w3.org/2000/svg" viewBox="0 -960 960 960"><path fill="#10b981" stroke="#34495e" stroke-width="16" stroke-linejoin="round" d="M40-120v-160l80-80v-240l-80-80v-160h80v80h80v-80h80v80h80v-80h80v160l-80 80v40h240v-40l-80-80v-160h80v80h80v-80h80v80h80v-80h80v160l-80 80v240l80 80v160H560v-120q0-33-23.5-56.5T480-320q-33 0-56.5 23.5T400-240v120H40Zm80-80h200v-40q0-66 47-113t113-47q66 0 113 47t47 113v40h200v-47l-80-80v-306l47-47H633l47 47v153H280v-153l47-47H153l47 47v306l-80 80v47Zm360-240Z"></path><path fill="#34495e" d="M120-200h200v-40q0-66 47-113t113-47q66 0 113 47t47 113v40h200v-47l-80-80v-306l47-47H633l47 47v153H280v-153l47-47H153l47 47v306l-80 80v47Z"></path></svg></svg><style>@media (prefers-color-scheme: light) { :root { filter: none; } }
@media (prefers-color-scheme: dark) { :root { filter: none; } }
</style></svg>